fd_11_states
version=1
nRows=23
nColumns=17
inDegrees=yes

# SIMM Motion File Header:
name fd_11_states
datacolumns 17
datarows 23
otherdata 1
range 0.709974 0.725722
endheader
time	/jointset/r_shoulder/r_shoulder_elev/value	/jointset/r_shoulder/r_shoulder_elev/speed	/jointset/r_elbow/r_elbow_flex/value	/jointset/r_elbow/r_elbow_flex/speed	/forceset/TRIlong/activation	/forceset/TRIlong/fiber_length	/forceset/TRIlat/activation	/forceset/TRIlat/fiber_length	/forceset/TRImed/activation	/forceset/TRImed/fiber_length	/forceset/BIClong/activation	/forceset/BIClong/fiber_length	/forceset/BICshort/activation	/forceset/BICshort/fiber_length	/forceset/BRA/activation	/forceset/BRA/fiber_length
      0.709974	      1.737336	    108.821023	    244.301394	    241.361398	      0.043691	      0.166817	      0.413691	      0.099091	      0.406051	      0.094165	      0.147169	      0.100426	      0.040752	      0.100919	      0.034128	      0.051702
      0.710150	      1.756477	    108.781290	    244.343866	    241.492491	      0.043632	      0.166817	      0.413336	      0.099078	      0.405679	      0.094152	      0.147042	      0.100455	      0.040700	      0.100953	      0.034107	      0.051719
      0.710326	      1.775610	    108.741138	    244.386361	    241.624885	      0.043574	      0.166817	      0.412749	      0.099065	      0.405073	      0.094138	      0.146917	      0.100485	      0.040649	      0.100988	      0.034094	      0.051735
      0.711205	      1.871170	    108.534602	    244.599193	    242.303148	      0.043282	      0.166815	      0.409867	      0.099000	      0.402092	      0.094074	      0.146295	      0.100633	      0.040396	      0.101161	      0.034029	      0.051818
      0.712596	      2.021825	    108.190669	    244.936825	    243.416719	      0.042830	      0.166812	      0.405474	      0.098899	      0.397548	      0.093973	      0.145335	      0.100867	      0.040003	      0.101436	      0.033929	      0.051946
      0.713208	      2.088010	    108.034118	    245.085994	    243.912982	      0.042634	      0.166810	      0.403601	      0.098855	      0.395610	      0.093929	      0.144920	      0.100971	      0.039832	      0.101557	      0.033886	      0.052010
      0.713944	      2.167463	    107.840471	    245.265762	    244.521731	      0.042400	      0.166807	      0.401396	      0.098802	      0.393329	      0.093876	      0.144427	      0.101095	      0.039629	      0.101704	      0.033834	      0.052075
      0.714680	      2.246773	    107.643907	    245.445979	    245.126405	      0.042169	      0.166805	      0.399242	      0.098749	      0.391101	      0.093823	      0.143942	      0.101220	      0.039428	      0.101850	      0.033783	      0.052154
      0.715416	      2.325936	    107.441547	    245.626644	    245.743522	      0.041941	      0.166801	      0.397137	      0.098696	      0.388923	      0.093771	      0.143463	      0.101346	      0.039229	      0.101997	      0.033732	      0.052216
      0.716152	      2.404949	    107.237506	    245.807761	    246.349704	      0.041715	      0.166797	      0.395080	      0.098643	      0.386794	      0.093718	      0.142991	      0.101471	      0.039033	      0.102144	      0.033682	      0.052298
      0.716888	      2.483810	    107.027587	    245.989327	    246.968913	      0.041491	      0.166793	      0.393070	      0.098589	      0.384714	      0.093664	      0.142525	      0.101597	      0.038838	      0.102292	      0.033632	      0.052357
      0.717625	      2.562516	    106.816731	    246.171346	    247.573351	      0.041270	      0.166789	      0.391104	      0.098536	      0.382680	      0.093611	      0.142067	      0.101723	      0.038646	      0.102440	      0.033583	      0.052441
      0.718361	      2.641064	    106.599985	    246.353812	    248.191086	      0.041051	      0.166784	      0.389183	      0.098483	      0.380691	      0.093558	      0.141614	      0.101849	      0.038455	      0.102588	      0.033535	      0.052500
      0.719097	      2.719453	    106.382757	    246.536729	    248.791959	      0.040835	      0.166779	      0.387305	      0.098429	      0.378747	      0.093504	      0.141168	      0.101976	      0.038267	      0.102737	      0.033486	      0.052586
      0.719833	      2.797680	    106.159481	    246.720092	    249.407230	      0.040621	      0.166774	      0.385469	      0.098375	      0.376845	      0.093450	      0.140728	      0.102102	      0.038080	      0.102886	      0.033439	      0.052644
      0.720569	      2.875742	    105.936108	    246.903903	    250.003951	      0.040409	      0.166768	      0.383696	      0.098321	      0.375031	      0.093396	      0.140235	      0.102230	      0.037896	      0.103036	      0.033376	      0.052732
      0.721305	      2.953637	    105.705772	    247.088158	    250.619085	      0.040200	      0.166762	      0.382000	      0.098266	      0.373335	      0.093341	      0.139647	      0.102358	      0.037714	      0.103185	      0.033288	      0.052790
      0.722041	      3.031363	    105.474405	    247.272862	    251.218535	      0.039992	      0.166755	      0.380343	      0.098211	      0.371677	      0.093286	      0.139064	      0.102487	      0.037533	      0.103335	      0.033201	      0.052881
      0.722777	      3.108915	    105.234500	    247.458015	    251.842892	      0.039788	      0.166748	      0.378722	      0.098156	      0.370055	      0.093231	      0.138489	      0.102617	      0.037355	      0.103486	      0.033114	      0.052936
      0.723513	      3.186289	    104.993553	    247.643623	    252.451057	      0.039585	      0.166741	      0.377136	      0.098101	      0.368468	      0.093176	      0.137922	      0.102747	      0.037178	      0.103636	      0.033028	      0.053030
      0.724249	      3.263484	    104.743703	    247.829687	    253.085899	      0.039384	      0.166733	      0.375585	      0.098045	      0.366914	      0.093120	      0.137364	      0.102877	      0.037003	      0.103788	      0.032943	      0.053084
      0.724986	      3.340494	    104.493025	    248.016214	    253.703708	      0.039186	      0.166725	      0.374066	      0.097989	      0.365394	      0.093064	      0.136813	      0.103008	      0.036830	      0.103939	      0.032859	      0.053180
      0.725722	      3.417316	    104.233004	    248.203205	    254.350606	      0.038990	      0.166717	      0.372581	      0.097933	      0.363906	      0.093008	      0.136270	      0.103138	      0.036659	      0.104091	      0.032775	      0.053233
